<svg xmlns="http://www.w3.org/2000/svg" version="1.1" xmlns:xlink="http://www.w3.org/1999/xlink" xmlns:svgjs="http://svgjs.dev/svgjs" width="1000" height="999" viewBox="0 0 1000 999"><g transform="matrix(1,0,0,1,-0.215743440233382,-0.21552769679306039)"><svg viewBox="0 0 343 343" data-background-color="#ffffff" preserveAspectRatio="xMidYMid meet" height="999" width="1000" xmlns="http://www.w3.org/2000/svg" xmlns:xlink="http://www.w3.org/1999/xlink"><g id="tight-bounds" transform="matrix(1,0,0,1,0.0740000000000407,0.07400000000001228)"><svg viewBox="0 0 342.85155851775386 342.85155851775386" height="342.85155851775386" width="342.85155851775386"><g><svg></svg></g><g><svg viewBox="0 0 342.85155851775386 342.85155851775386" height="342.85155851775386" width="342.85155851775386"><g><path d="M0 171.426c0-94.676 76.75-171.426 171.426-171.426 94.676 0 171.426 76.75 171.426 171.426 0 94.676-76.75 171.426-171.426 171.426-94.676 0-171.426-76.75-171.426-171.426zM171.426 330.095c87.631 0 158.669-71.039 158.669-158.669 0-87.631-71.039-158.669-158.669-158.67-87.631 0-158.669 71.039-158.67 158.67 0 87.631 71.039 158.669 158.67 158.669z" data-fill-palette-color="tertiary" fill="#000000" stroke="transparent"></path><ellipse rx="164.56874808852186" ry="164.56874808852186" cx="171.42577925887693" cy="171.42577925887693" fill="#000000" stroke="transparent" stroke-width="0" fill-opacity="1" data-fill-palette-color="tertiary"></ellipse></g><g transform="matrix(1,0,0,1,64.84655864529837,100.69949499141028)"><svg viewBox="0 0 213.1584412271571 141.4525685349333" height="141.4525685349333" width="213.1584412271571"><g><svg viewBox="0 0 213.1584412271571 141.4525685349333" height="141.4525685349333" width="213.1584412271571"><g><svg viewBox="0 0 213.1584412271571 141.4525685349333" height="141.4525685349333" width="213.1584412271571"><g><svg viewBox="0 0 213.1584412271571 141.4525685349333" height="141.4525685349333" width="213.1584412271571"><g id="textblocktransform"><svg viewBox="0 0 213.1584412271571 141.4525685349333" height="141.4525685349333" width="213.1584412271571" id="textblock"><g><svg viewBox="0 0 213.1584412271571 141.4525685349333" height="141.4525685349333" width="213.1584412271571"><g transform="matrix(1,0,0,1,0,0)"><svg width="213.1584412271571" viewBox="2.200000047683716 -35.5 54.39999771118164 36.099998474121094" height="141.4525685349333" data-palette-color="#ffffff"><path d="M11.75-35.25L11.75-35.25 21.55-34.95 26.7-35.05Q26.85-34.3 26.85-33.05 26.85-31.8 26.48-31.25 26.1-30.7 25.2-30.7 24.3-30.7 21.38-30.95 18.45-31.2 17.05-31.2L17.05-31.2 15.25-31.1Q15.05-29.2 12.85-18.95L12.85-18.95Q16.65-19.3 19.2-19.3 21.75-19.3 23.15-18.9L23.15-18.9Q23.05-16.8 22.25-15.3L22.25-15.3Q20.1-15.75 17.15-15.75 14.2-15.75 12.15-15.45L12.15-15.45Q10.3-6.4 10.3-1.7L10.3-1.7 10.3-0.85Q8.5 0.15 2.7 0.15L2.7 0.15 2.2 0.15Q2.2-3.25 4.53-14 6.85-24.75 7.35-29.45L7.35-29.45Q7.35-30.25 6.85-31.38 6.35-32.5 5.8-33.2L5.8-33.2 5.3-33.9 5.45-34.65Q8.15-35.2 11.75-35.25ZM27.55 0.25L27.55 0.25Q26.6 0.25 26.25 0.2L26.25 0.2Q26.6-2.7 29.32-14.53 32.05-26.35 32.05-29.5L32.05-29.5Q32.05-30.1 31.35-31.08 30.65-32.05 29.95-32.7L29.95-32.7 29.3-33.4 29.45-34.2Q36.3-35.5 43.95-35.5L43.95-35.5Q53.15-35.5 53.15-28.25L53.15-28.25Q53.15-24.7 51.37-21.78 49.6-18.85 45.85-17.2L45.85-17.2Q48.65-7.85 50.65-5.1L50.65-5.1Q51.55-3.95 52.05-3.95L52.05-3.95Q52.95-3.95 54.85-4.85L54.85-4.85 55.45-5.15 56.6-3.3Q54.75-1.6 52.32-0.5 49.9 0.6 47.77 0.6 45.65 0.6 44.27-1.23 42.9-3.05 41.77-6.6 40.65-10.15 39.5-15.7L39.5-15.7Q37.9-15.6 37.05-15.6L37.05-15.6Q34.5-4.65 34.25-0.8L34.25-0.8Q32.1 0.25 27.55 0.25ZM37.8-19L39-19Q42-19 43.72-21.68 45.45-24.35 45.45-28.05L45.45-28.05Q45.45-30 44.75-31.2 44.05-32.4 42.65-32.4L42.65-32.4Q42.05-32.4 41.22-32.23 40.4-32.05 40.4-32L40.4-32Q39.6-26.85 37.8-19L37.8-19Z" opacity="1" transform="matrix(1,0,0,1,0,0)" fill="#ffffff" class="undefined-text-0" data-fill-palette-color="quaternary" id="text-0"></path></svg></g></svg></g></svg></g></svg></g><g></g></svg></g></svg></g></svg></g></svg></g><defs></defs></svg><rect width="342.85155851775386" height="342.85155851775386" fill="none" stroke="none" visibility="hidden"></rect></g></svg></g></svg>